<mxfile host="app.diagrams.net" modified="2021-05-07T10:15:44.083Z" agent="5.0 (Windows NT 10.0; Win64; x64) AppleWebKit/537.36 (KHTML, like Gecko) Chrome/90.0.4430.93 Safari/537.36" etag="nYNxA2hjRAVl6c1MX8AV" version="14.6.10" type="github">
  <diagram id="kgpKYQtTHZ0yAKxKKP6v" name="Page-1">
    <mxGraphModel dx="1038" dy="548" grid="1" gridSize="10" guides="1" tooltips="1" connect="1" arrows="1" fold="1" page="1" pageScale="1" pageWidth="850" pageHeight="1100" math="0" shadow="0">
      <root>
        <mxCell id="0" />
        <mxCell id="1" parent="0" />
        <mxCell id="3nuBFxr9cyL0pnOWT2aG-1" value="用户" style="shape=umlLifeline;perimeter=lifelinePerimeter;container=1;collapsible=0;recursiveResize=0;rounded=0;shadow=0;strokeWidth=1;" parent="1" vertex="1">
          <mxGeometry x="70" y="80" width="100" height="480" as="geometry" />
        </mxCell>
        <mxCell id="3nuBFxr9cyL0pnOWT2aG-2" value="" style="points=[];perimeter=orthogonalPerimeter;rounded=0;shadow=0;strokeWidth=1;" parent="3nuBFxr9cyL0pnOWT2aG-1" vertex="1">
          <mxGeometry x="45" y="70" width="10" height="410" as="geometry" />
        </mxCell>
        <mxCell id="YHtdSYeLMTi2-hYEUl7V-9" style="edgeStyle=orthogonalEdgeStyle;rounded=0;orthogonalLoop=1;jettySize=auto;html=1;" edge="1" parent="3nuBFxr9cyL0pnOWT2aG-1" source="3nuBFxr9cyL0pnOWT2aG-4" target="3nuBFxr9cyL0pnOWT2aG-1">
          <mxGeometry relative="1" as="geometry" />
        </mxCell>
        <mxCell id="3nuBFxr9cyL0pnOWT2aG-4" value="" style="points=[];perimeter=orthogonalPerimeter;rounded=0;shadow=0;strokeWidth=1;" parent="3nuBFxr9cyL0pnOWT2aG-1" vertex="1">
          <mxGeometry x="55" y="250" width="10" height="80" as="geometry" />
        </mxCell>
        <mxCell id="3nuBFxr9cyL0pnOWT2aG-5" value="客户端" style="shape=umlLifeline;perimeter=lifelinePerimeter;container=1;collapsible=0;recursiveResize=0;rounded=0;shadow=0;strokeWidth=1;" parent="1" vertex="1">
          <mxGeometry x="240" y="80" width="100" height="480" as="geometry" />
        </mxCell>
        <mxCell id="YHtdSYeLMTi2-hYEUl7V-10" style="edgeStyle=orthogonalEdgeStyle;rounded=0;orthogonalLoop=1;jettySize=auto;html=1;" edge="1" parent="3nuBFxr9cyL0pnOWT2aG-5" source="3nuBFxr9cyL0pnOWT2aG-6" target="3nuBFxr9cyL0pnOWT2aG-5">
          <mxGeometry relative="1" as="geometry" />
        </mxCell>
        <mxCell id="3nuBFxr9cyL0pnOWT2aG-6" value="" style="points=[];perimeter=orthogonalPerimeter;rounded=0;shadow=0;strokeWidth=1;" parent="3nuBFxr9cyL0pnOWT2aG-5" vertex="1">
          <mxGeometry x="45" y="80" width="10" height="400" as="geometry" />
        </mxCell>
        <mxCell id="3nuBFxr9cyL0pnOWT2aG-7" value="开始直播成功，关闭loading" style="verticalAlign=bottom;endArrow=open;dashed=1;endSize=8;exitX=0;exitY=0.95;shadow=0;strokeWidth=1;" parent="1" source="3nuBFxr9cyL0pnOWT2aG-6" edge="1">
          <mxGeometry relative="1" as="geometry">
            <mxPoint x="130" y="540" as="targetPoint" />
          </mxGeometry>
        </mxCell>
        <mxCell id="3nuBFxr9cyL0pnOWT2aG-8" value="开始直播，打开&#xa;loading" style="verticalAlign=bottom;endArrow=block;entryX=0;entryY=0;shadow=0;strokeWidth=1;" parent="1" source="3nuBFxr9cyL0pnOWT2aG-2" target="3nuBFxr9cyL0pnOWT2aG-6" edge="1">
          <mxGeometry relative="1" as="geometry">
            <mxPoint x="275" y="160" as="sourcePoint" />
          </mxGeometry>
        </mxCell>
        <mxCell id="3nuBFxr9cyL0pnOWT2aG-9" value="加入频道" style="verticalAlign=bottom;endArrow=block;entryX=-0.36;entryY=0.249;shadow=0;strokeWidth=1;entryDx=0;entryDy=0;entryPerimeter=0;" parent="1" edge="1">
          <mxGeometry x="0.0544" relative="1" as="geometry">
            <mxPoint x="296" y="199.84000000000003" as="sourcePoint" />
            <mxPoint x="417.4000000000001" y="199.84000000000003" as="targetPoint" />
            <mxPoint as="offset" />
          </mxGeometry>
        </mxCell>
        <mxCell id="YHtdSYeLMTi2-hYEUl7V-3" value="声网" style="shape=umlLifeline;perimeter=lifelinePerimeter;container=1;collapsible=0;recursiveResize=0;rounded=0;shadow=0;strokeWidth=1;" vertex="1" parent="1">
          <mxGeometry x="375" y="80" width="100" height="440" as="geometry" />
        </mxCell>
        <mxCell id="YHtdSYeLMTi2-hYEUl7V-4" value="" style="points=[];perimeter=orthogonalPerimeter;rounded=0;shadow=0;strokeWidth=1;" vertex="1" parent="YHtdSYeLMTi2-hYEUl7V-3">
          <mxGeometry x="45" y="80" width="10" height="360" as="geometry" />
        </mxCell>
        <mxCell id="YHtdSYeLMTi2-hYEUl7V-5" value="服务端" style="shape=umlLifeline;perimeter=lifelinePerimeter;container=1;collapsible=0;recursiveResize=0;rounded=0;shadow=0;strokeWidth=1;" vertex="1" parent="1">
          <mxGeometry x="510" y="80" width="100" height="440" as="geometry" />
        </mxCell>
        <mxCell id="YHtdSYeLMTi2-hYEUl7V-6" value="" style="points=[];perimeter=orthogonalPerimeter;rounded=0;shadow=0;strokeWidth=1;" vertex="1" parent="YHtdSYeLMTi2-hYEUl7V-5">
          <mxGeometry x="45" y="80" width="10" height="360" as="geometry" />
        </mxCell>
        <mxCell id="YHtdSYeLMTi2-hYEUl7V-8" value="加入成功" style="edgeStyle=orthogonalEdgeStyle;rounded=0;orthogonalLoop=1;jettySize=auto;html=1;" edge="1" parent="1" source="YHtdSYeLMTi2-hYEUl7V-3">
          <mxGeometry y="-9" relative="1" as="geometry">
            <mxPoint x="375" y="239.5" as="sourcePoint" />
            <mxPoint x="295" y="239.5" as="targetPoint" />
            <Array as="points">
              <mxPoint x="335" y="240" />
            </Array>
            <mxPoint as="offset" />
          </mxGeometry>
        </mxCell>
        <mxCell id="YHtdSYeLMTi2-hYEUl7V-11" value="发送开始直播请求" style="edgeStyle=orthogonalEdgeStyle;rounded=0;orthogonalLoop=1;jettySize=auto;html=1;" edge="1" parent="1" source="3nuBFxr9cyL0pnOWT2aG-6" target="YHtdSYeLMTi2-hYEUl7V-5">
          <mxGeometry x="-0.2817" y="10" relative="1" as="geometry">
            <Array as="points">
              <mxPoint x="430" y="280" />
              <mxPoint x="430" y="280" />
            </Array>
            <mxPoint as="offset" />
          </mxGeometry>
        </mxCell>
        <mxCell id="YHtdSYeLMTi2-hYEUl7V-12" style="edgeStyle=orthogonalEdgeStyle;rounded=0;orthogonalLoop=1;jettySize=auto;html=1;" edge="1" parent="1" source="YHtdSYeLMTi2-hYEUl7V-6" target="3nuBFxr9cyL0pnOWT2aG-5">
          <mxGeometry relative="1" as="geometry">
            <Array as="points">
              <mxPoint x="470" y="360" />
              <mxPoint x="470" y="360" />
            </Array>
          </mxGeometry>
        </mxCell>
        <mxCell id="YHtdSYeLMTi2-hYEUl7V-16" value="im通知开始直播成功" style="edgeLabel;html=1;align=center;verticalAlign=middle;resizable=0;points=[];" vertex="1" connectable="0" parent="YHtdSYeLMTi2-hYEUl7V-12">
          <mxGeometry x="0.2218" y="-4" relative="1" as="geometry">
            <mxPoint x="17" y="-6" as="offset" />
          </mxGeometry>
        </mxCell>
        <mxCell id="YHtdSYeLMTi2-hYEUl7V-15" value="异常处理 ，恢复状态，&#xa;离开直播间，关闭loading" style="verticalAlign=bottom;endArrow=open;dashed=1;endSize=8;shadow=0;strokeWidth=1;" edge="1" parent="1">
          <mxGeometry relative="1" as="geometry">
            <mxPoint x="290" y="319.9999999999998" as="targetPoint" />
            <mxPoint x="520" y="280" as="sourcePoint" />
            <Array as="points">
              <mxPoint x="520" y="320" />
            </Array>
          </mxGeometry>
        </mxCell>
        <mxCell id="YHtdSYeLMTi2-hYEUl7V-17" value="&lt;div style=&quot;text-align: left&quot;&gt;1、更新客户端状态&lt;/div&gt;&lt;div style=&quot;text-align: left&quot;&gt;2、设置IM可发送&lt;/div&gt;&lt;div style=&quot;text-align: left&quot;&gt;3、IM保活&lt;/div&gt;&lt;div style=&quot;text-align: left&quot;&gt;4、发送开始直播IM消息&lt;/div&gt;&lt;div style=&quot;text-align: left&quot;&gt;5、发送roomData同步直播间状态&lt;/div&gt;" style="endArrow=classic;startArrow=classic;html=1;rounded=0;edgeStyle=orthogonalEdgeStyle;" edge="1" parent="1">
          <mxGeometry x="0.0344" y="-92" width="50" height="50" relative="1" as="geometry">
            <mxPoint x="297.5" y="490" as="sourcePoint" />
            <mxPoint x="297.5" y="380" as="targetPoint" />
            <Array as="points">
              <mxPoint x="388" y="490" />
              <mxPoint x="388" y="380" />
            </Array>
            <mxPoint y="1" as="offset" />
          </mxGeometry>
        </mxCell>
      </root>
    </mxGraphModel>
  </diagram>
</mxfile>
